M48
; DRILL file {KiCad 5.1.5+dfsg1-2build2} date zo 11 apr 2021 10:36:51 CEST
; FORMAT={-:-/ absolute / inch / decimal}
; #@! TF.CreationDate,2021-04-11T10:36:51+02:00
; #@! TF.GenerationSoftware,Kicad,Pcbnew,5.1.5+dfsg1-2build2
FMAT,2
INCH
T1C0.0157
T2C0.0236
T3C0.0276
T4C0.0315
T5C0.0394
T6C0.0394
T7C0.0400
T8C0.0787
T9C0.0350
T10C0.0935
%
G90
G05
T1
X0.3215Y-5.189
X0.9075Y-5.401
X1.2455Y-5.4365
X1.2975Y-4.5355
X1.303Y-5.379
X1.476Y-4.4068
X1.611Y-1.7515
X1.613Y-2.48
X1.613Y-2.6375
X1.613Y-3.0305
X1.8385Y-4.149
X1.843Y-1.722
X1.8434Y-1.5038
X1.8865Y-1.8515
X1.8875Y-4.7255
X1.9895Y-2.22
X1.9915Y-3.546
X2.024Y-4.378
X2.025Y-3.793
X2.0255Y-3.425
X2.0255Y-3.7475
X2.0585Y-3.267
X2.0595Y-3.8545
X2.068Y-3.082
X2.0955Y-3.3445
X2.0965Y-4.001
X2.0965Y-5.001
X2.097Y-3.937
X2.1265Y-4.2325
X2.1285Y-3.658
X2.13Y-3.6005
X2.131Y-2.1095
X2.167Y-1.926
X2.169Y-4.316
X2.226Y-2.5495
X2.227Y-4.3475
X2.2735Y-4.5
X2.274Y-3.1725
X2.285Y-1.851
X2.285Y-2.4995
X2.288Y-5.2154
X2.319Y-3.1095
X2.319Y-4.684
X2.3615Y-3.6445
X2.363Y-2.4315
X2.363Y-4.444
X2.4026Y-5.3979
X2.411Y-2.1355
X2.436Y-2.432
X2.4365Y-4.0515
X2.4375Y-4.273
X2.4635Y-4.7605
X2.4725Y-2.4995
X2.4865Y-4.919
X2.506Y-4.3105
X2.542Y-4.0265
X2.5775Y-4.7245
X2.596Y-4.347
X2.6145Y-4.0005
X2.6195Y-3.9365
X2.62Y-2.8565
X2.6235Y-4.501
X2.645Y-4.684
X2.66Y-4.4753
X2.6725Y-2.9435
X2.791Y-3.2175
X2.9995Y-4.7945
X3.0195Y-3.589
X3.026Y-4.3535
X3.026Y-4.5885
X3.0275Y-3.9285
X3.048Y-4.1118
X3.061Y-5.0865
X3.0635Y-3.9
X3.066Y-2.214
X3.0692Y-3.4706
X3.07Y-3.7925
X3.096Y-3.553
X3.108Y-4.0618
X3.137Y-4.65
X3.1375Y-4.7565
X3.1686Y-3.3554
X3.212Y-4.074
X3.2185Y-3.9
X3.2285Y-3.83
X3.236Y-3.2375
X3.256Y-3.7875
X3.261Y-3.3625
X3.301Y-3.1875
X3.306Y-3.6075
X3.3082Y-4.3997
X3.311Y-3.6775
X3.311Y-4.4808
X3.316Y-3.7475
X3.331Y-3.9275
X3.336Y-3.4375
X3.371Y-4.5064
X3.406Y-4.2675
X3.428Y-3.3196
X3.431Y-4.3475
X3.4596Y-3.7814
X3.556Y-4.8625
X3.614Y-3.791
X3.6274Y-3.9658
X3.6542Y-3.7188
X3.6656Y-3.7642
X3.6938Y-3.7136
X3.696Y-2.9975
X3.721Y-3.8342
X3.835Y-3.9702
X3.943Y-4.5075
X4.021Y-4.5035
X4.0435Y-3.55
X4.096Y-4.4225
X4.1472Y-2.3311
X4.4485Y-2.1524
X4.4559Y-2.2084
X4.5583Y-1.8741
X4.7665Y-2.6505
X4.8273Y-3.57
X4.855Y-4.5355
X4.8853Y-1.0569
X4.888Y-2.5425
X5.017Y-4.676
X5.0445Y-4.5635
X5.061Y-4.8965
X5.1155Y-4.598
X5.1985Y-2.3555
X5.213Y-4.3372
X5.3337Y-1.6874
X5.3433Y-1.3627
X5.3775Y-5.098
X5.4532Y-2.1839
X5.4727Y-1.581
X5.488Y-4.708
X5.509Y-3.4945
X5.5103Y-1.3302
X5.516Y-5.2535
X5.5835Y-2.5295
X5.6504Y-3.8151
X5.6595Y-4.3433
X5.664Y-2.611
X5.716Y-3.804
X5.759Y-3.7215
X5.7682Y-3.8222
X5.8195Y-3.7075
X5.898Y-3.76
X5.9102Y-2.7184
X5.9915Y-3.59
X6.0745Y-3.274
X6.242Y-4.4225
X6.2435Y-4.5515
X6.247Y-4.692
X6.249Y-4.826
X6.343Y-3.1995
X6.552Y-3.136
X6.6415Y-4.133
X6.763Y-3.0835
X6.9565Y-3.029
X7.171Y-2.9985
X7.291Y-2.9565
X7.3625Y-4.1335
X7.5318Y-2.6768
X7.5475Y-4.021
X7.56Y-2.6278
X7.5644Y-3.5634
X7.587Y-2.706
X7.6535Y-3.96
X7.6716Y-1.9396
X7.6884Y-1.5298
X7.738Y-3.7606
X7.7662Y-3.5912
X7.768Y-3.5452
X7.9282Y-1.6974
X7.9674Y-3.76
X8.0178Y-2.8554
X8.0332Y-3.0881
X8.071Y-3.962
X8.1008Y-2.5822
T2
X3.3341Y-5.2237
X3.6163Y-4.6408
X3.619Y-4.4482
X3.6208Y-4.7617
X3.6313Y-3.4516
X3.6436Y-2.8935
X3.9381Y-3.71
X3.9381Y-3.8576
X3.9442Y-4.1621
X3.9504Y-3.4147
X3.9504Y-4.0081
X3.9592Y-4.242
X3.9602Y-3.5717
X3.9627Y-3.6239
X3.9711Y-3.4891
X4.0112Y-4.0991
X4.0501Y-4.0471
X4.0602Y-4.3705
X4.0619Y-4.5958
X4.1251Y-3.9302
X4.1261Y-4.3712
X4.159Y-3.1713
X4.159Y-3.2713
X4.1717Y-3.584
X4.1727Y-3.4147
X4.185Y-4.4359
X4.2096Y-3.55
X4.2219Y-3.6239
X4.2219Y-3.71
X4.2506Y-4.5036
X4.3021Y-3.74
X4.321Y-3.4105
X4.334Y-4.0463
X4.399Y-3.4105
X4.432Y-3.7046
X4.4352Y-3.7715
X4.4379Y-3.5534
X4.4509Y-3.9172
X4.4509Y-3.969
X4.459Y-2.9054
X4.468Y-3.2903
X4.4769Y-4.15
X4.4769Y-4.202
X4.5029Y-4.5025
X4.5049Y-4.3374
X4.5056Y-3.8945
X4.5289Y-4.202
X4.5295Y-3.6833
X4.534Y-3.3213
X4.534Y-3.3713
X4.5549Y-3.9821
X4.5556Y-4.5025
X4.5679Y-4.9565
X4.5787Y-2.9964
X4.5808Y-3.6833
X4.5808Y-4.202
X4.5938Y-3.9432
X4.6328Y-3.5534
X4.6328Y-3.6833
X4.6494Y-3.0916
X4.654Y-4.4239
X4.6648Y-3.8463
X4.7017Y-3.8087
X4.709Y-4.1963
X4.7127Y-3.5443
X4.7386Y-3.9663
X4.7511Y-4.5408
X4.7511Y-4.645
X4.7588Y-2.8518
X4.7588Y-3.0077
X4.7627Y-4.3569
X4.8005Y-4.0361
X4.8131Y-3.6451
X4.8247Y-4.3621
X4.8757Y-3.1077
X4.9232Y-4.645
X4.9391Y-3.8219
X4.9391Y-4.2026
X4.9724Y-3.3778
X4.9843Y-4.4505
X5.0021Y-3.6451
X5.0021Y-3.8219
X5.0171Y-4.353
X5.0271Y-2.9016
X5.0373Y-3.5281
X5.0592Y-3.8576
X5.1077Y-3.0456
X5.2155Y-2.7384
X5.2245Y-4.8661
X5.2554Y-4.2144
X5.3163Y-2.7762
X5.334Y-5.0463
X5.3474Y-2.553
X5.403Y-4.2144
X5.4171Y-2.7384
X5.4768Y-4.2144
X5.573Y-3.8045
X5.5752Y-4.4113
X5.6462Y-4.7487
X5.684Y-3.6463
X5.7068Y-2.7384
X5.7202Y-2.8128
X5.7202Y-3.3054
T3
X5.7962Y-1.3846
X5.7962Y-1.5846
T4
X1.1049Y-1.6135
X1.1049Y-1.771
X1.1049Y-1.9284
X1.1049Y-2.0859
X1.1049Y-2.2434
X1.1049Y-2.4009
X1.1049Y-2.5584
X1.1049Y-2.7158
X1.1049Y-2.8733
X1.1049Y-3.0308
X1.1049Y-3.1883
X1.1049Y-3.3458
X1.1049Y-3.5032
X1.1049Y-3.6607
X1.1049Y-3.8182
X1.1049Y-3.9757
X1.1049Y-4.1332
X1.1049Y-4.2906
X1.1049Y-4.4481
X1.1049Y-4.6056
X1.1049Y-4.7631
X1.1049Y-4.9206
X1.223Y-1.456
X1.223Y-1.6922
X1.223Y-1.8497
X1.223Y-2.0072
X1.223Y-2.1647
X1.223Y-2.3221
X1.223Y-2.4796
X1.223Y-2.6371
X1.223Y-2.7946
X1.223Y-2.9521
X1.223Y-3.1095
X1.223Y-3.267
X1.223Y-3.4245
X1.223Y-3.582
X1.223Y-3.7395
X1.223Y-3.8969
X1.223Y-4.0544
X1.223Y-4.2119
X1.223Y-4.3694
X1.223Y-4.5269
X1.223Y-4.6843
X1.223Y-4.8418
X1.223Y-5.078
X1.3805Y-1.5347
X1.3805Y-1.6922
X1.3805Y-1.8497
X1.3805Y-2.0072
X1.3805Y-2.1647
X1.3805Y-2.3221
X1.3805Y-2.4796
X1.3805Y-2.6371
X1.3805Y-2.7946
X1.3805Y-2.9521
X1.3805Y-3.1095
X1.3805Y-3.267
X1.3805Y-3.4245
X1.3805Y-3.582
X1.3805Y-3.7395
X1.3805Y-3.8969
X1.3805Y-4.0544
X1.3805Y-4.2119
X1.3805Y-4.3694
X1.3805Y-4.5269
X1.3805Y-4.6843
X1.3805Y-4.8418
X1.3805Y-4.9993
X6.865Y-3.8355
X6.865Y-3.9355
X6.865Y-4.0355
X6.865Y-4.1355
X6.865Y-4.2355
X6.865Y-4.3355
X6.865Y-4.4355
X6.865Y-4.5355
X6.865Y-4.6355
X6.865Y-4.7355
X6.865Y-4.8355
X6.865Y-4.9355
X6.865Y-5.0355
X6.865Y-5.1355
X6.865Y-5.2355
X7.465Y-3.8355
X7.465Y-3.9355
X7.465Y-4.0355
X7.465Y-4.1355
X7.465Y-4.2355
X7.465Y-4.3355
X7.465Y-4.4355
X7.465Y-4.5355
X7.465Y-4.6355
X7.465Y-4.7355
X7.465Y-4.8355
X7.465Y-4.9355
X7.465Y-5.0355
X7.465Y-5.1355
X7.465Y-5.2355
X5.8006Y-0.965
X5.8006Y-1.265
X0.5315Y-1.6142
X0.5315Y-1.7717
X0.5315Y-1.9291
X0.5315Y-2.0866
X0.5315Y-2.2441
X0.5315Y-2.4016
X0.5315Y-2.5591
X0.5315Y-2.7165
X0.5315Y-2.874
X0.5315Y-3.0315
X0.5315Y-3.189
X0.5315Y-3.3465
X0.5315Y-3.5039
X0.5315Y-3.6614
X0.5315Y-3.8189
X0.5315Y-3.9764
X0.5315Y-4.1339
X0.5315Y-4.2913
X0.5315Y-4.4488
X0.5315Y-4.6063
X0.5315Y-4.7638
X0.5315Y-4.9213
X0.6496Y-1.4567
X0.6496Y-1.6929
X0.6496Y-1.8504
X0.6496Y-2.0079
X0.6496Y-2.1654
X0.6496Y-2.3228
X0.6496Y-2.4803
X0.6496Y-2.6378
X0.6496Y-2.7953
X0.6496Y-2.9528
X0.6496Y-3.1102
X0.6496Y-3.2677
X0.6496Y-3.4252
X0.6496Y-3.5827
X0.6496Y-3.7402
X0.6496Y-3.8976
X0.6496Y-4.0551
X0.6496Y-4.2126
X0.6496Y-4.3701
X0.6496Y-4.5276
X0.6496Y-4.685
X0.6496Y-4.8425
X0.6496Y-5.0787
X0.8071Y-1.5354
X0.8071Y-1.6929
X0.8071Y-1.8504
X0.8071Y-2.0079
X0.8071Y-2.1654
X0.8071Y-2.3228
X0.8071Y-2.4803
X0.8071Y-2.6378
X0.8071Y-2.7953
X0.8071Y-2.9528
X0.8071Y-3.1102
X0.8071Y-3.2677
X0.8071Y-3.4252
X0.8071Y-3.5827
X0.8071Y-3.7402
X0.8071Y-3.8976
X0.8071Y-4.0551
X0.8071Y-4.2126
X0.8071Y-4.3701
X0.8071Y-4.5276
X0.8071Y-4.685
X0.8071Y-4.8425
X0.8071Y-5.0
X4.857Y-1.1606
X4.857Y-1.4606
X5.2832Y-1.164
X5.2832Y-1.464
X5.3832Y-1.164
X5.3832Y-1.464
X5.4832Y-1.164
X5.4832Y-1.464
X5.5832Y-1.164
X5.5832Y-1.464
X5.066Y-1.166
X5.066Y-1.466
T5
X6.2381Y-3.7931
X6.2381Y-3.8931
X6.2381Y-3.9931
X6.2381Y-4.0931
X2.0964Y-1.1876
X2.0964Y-1.2876
X2.1964Y-1.1876
X2.1964Y-1.2876
X2.2964Y-1.1876
X2.2964Y-1.2876
X2.3964Y-1.1876
X2.3964Y-1.2876
X2.4964Y-1.1876
X2.4964Y-1.2876
X2.5964Y-1.1876
X2.5964Y-1.2876
X2.6964Y-1.1876
X2.6964Y-1.2876
X2.7964Y-1.1876
X2.7964Y-1.2876
X2.8964Y-1.1876
X2.8964Y-1.2876
X2.9964Y-1.1876
X2.9964Y-1.2876
X3.0964Y-1.1876
X3.0964Y-1.2876
X3.1964Y-1.1876
X3.1964Y-1.2876
X3.2964Y-1.1876
X3.2964Y-1.2876
X3.3964Y-1.1876
X3.3964Y-1.2876
X3.4964Y-1.1876
X3.4964Y-1.2876
X3.5964Y-1.1876
X3.5964Y-1.2876
X3.6964Y-1.1876
X3.6964Y-1.2876
X3.7964Y-1.1876
X3.7964Y-1.2876
X3.8964Y-1.1876
X3.8964Y-1.2876
X3.9964Y-1.1876
X3.9964Y-1.2876
X8.1598Y-2.0138
X8.1598Y-2.1138
X8.1598Y-2.2138
X8.1598Y-2.3138
X8.1598Y-2.4138
X8.1598Y-2.5138
X8.1598Y-2.6138
X8.1598Y-2.7138
X8.1598Y-2.8138
X8.1598Y-2.9138
X8.1598Y-3.0138
X8.1598Y-3.1138
X8.1598Y-3.2138
X8.1598Y-3.3138
X8.1598Y-3.4138
X8.1598Y-3.5138
X8.1598Y-3.6138
X8.1598Y-3.7138
X8.1598Y-3.8138
X8.1598Y-3.9138
X8.2598Y-2.0138
X8.2598Y-2.1138
X8.2598Y-2.2138
X8.2598Y-2.3138
X8.2598Y-2.4138
X8.2598Y-2.5138
X8.2598Y-2.6138
X8.2598Y-2.7138
X8.2598Y-2.8138
X8.2598Y-2.9138
X8.2598Y-3.0138
X8.2598Y-3.1138
X8.2598Y-3.2138
X8.2598Y-3.3138
X8.2598Y-3.4138
X8.2598Y-3.5138
X8.2598Y-3.6138
X8.2598Y-3.7138
X8.2598Y-3.8138
X8.2598Y-3.9138
X2.0964Y-0.887
X2.0964Y-0.987
X2.1964Y-0.887
X2.1964Y-0.987
X2.2964Y-0.887
X2.2964Y-0.987
X2.3964Y-0.887
X2.3964Y-0.987
X2.4964Y-0.887
X2.4964Y-0.987
X2.5964Y-0.887
X2.5964Y-0.987
X2.6964Y-0.887
X2.6964Y-0.987
X2.7964Y-0.887
X2.7964Y-0.987
X2.8964Y-0.887
X2.8964Y-0.987
X2.9964Y-0.887
X2.9964Y-0.987
X3.0964Y-0.887
X3.0964Y-0.987
X3.1964Y-0.887
X3.1964Y-0.987
X3.2964Y-0.887
X3.2964Y-0.987
X3.3964Y-0.887
X3.3964Y-0.987
X3.4964Y-0.887
X3.4964Y-0.987
X3.5964Y-0.887
X3.5964Y-0.987
X3.6964Y-0.887
X3.6964Y-0.987
X3.7964Y-0.887
X3.7964Y-0.987
X3.8964Y-0.887
X3.8964Y-0.987
X3.9964Y-0.887
X3.9964Y-0.987
X1.8785Y-0.9725
X1.8785Y-1.0725
X1.8785Y-1.1725
T6
X4.351Y-0.9185
X4.3455Y-1.2255
T7
X4.334Y-2.3463
X4.334Y-2.4463
X4.434Y-2.3463
X4.434Y-2.4463
X4.534Y-2.3463
X4.534Y-2.4463
X4.634Y-2.3463
X4.634Y-2.4463
X4.734Y-2.3463
X4.734Y-2.4463
X4.834Y-2.3463
X4.834Y-2.4463
X4.934Y-2.3463
X4.934Y-2.4463
X5.034Y-2.3463
X5.034Y-2.4463
X2.856Y-3.3463
X2.856Y-3.4463
X2.856Y-3.5463
X2.856Y-3.6463
X2.856Y-3.7463
X2.856Y-3.8463
X2.856Y-3.9463
X2.856Y-4.0463
X2.856Y-4.1463
X2.856Y-4.2463
X2.856Y-4.3463
X2.856Y-4.4463
X2.856Y-4.5463
X2.956Y-3.3463
X2.956Y-3.4463
X2.956Y-3.5463
X2.956Y-3.6463
X2.956Y-3.7463
X2.956Y-3.8463
X2.956Y-3.9463
X2.956Y-4.0463
X2.956Y-4.1463
X2.956Y-4.2463
X2.956Y-4.3463
X2.956Y-4.4463
X2.956Y-4.5463
X4.534Y-5.0463
X4.534Y-5.1463
X4.634Y-5.0463
X4.634Y-5.1463
X4.734Y-5.0463
X4.734Y-5.1463
X4.834Y-5.0463
X4.834Y-5.1463
X4.934Y-5.0463
X4.934Y-5.1463
X5.034Y-5.0463
X5.034Y-5.1463
X5.134Y-5.0463
X5.134Y-5.1463
X5.134Y-3.1463
X5.134Y-3.2463
X5.134Y-3.3463
X5.134Y-3.4463
X5.134Y-3.5463
X5.234Y-3.1463
X5.234Y-3.2463
X5.234Y-3.3463
X5.234Y-3.4463
X5.234Y-3.5463
T8
X7.615Y-2.1365
X7.865Y-2.1365
T9
X5.3999Y-3.9037
X5.4399Y-4.1037
X5.4799Y-3.9037
T10
X5.3399Y-3.9787
X5.3399Y-4.1037
X5.5399Y-3.9787
X5.5399Y-4.1037
T0
M30
